<svg xmlns="http://www.w3.org/2000/svg" xmlns:xlink="http://www.w3.org/1999/xlink" version="1.1" x="0px" y="0px" viewBox="0 0 100 125" enable-background="new 0 0 100 100" xml:space="preserve"><path d="M31.112,36.373l-1.033,1.033c-2.253,2.254-3.387,5.224-3.387,8.18s1.119,5.913,3.387,8.18l1.693,1.693  c0.688,0.688,0.604,1.827-0.177,2.407l-1.861,1.382C22.386,64.932,11.91,73.169,8.467,76.612c-5.482,5.482-3.76,15.471,5.281,18.054  c3.66,1.047,7.405-0.459,9.973-3.257c0.072-0.101,0.144-0.174,0.201-0.259c0.043-0.015,0.058-0.058,0.1-0.101  c3.703-3.903,11.41-13.732,16.806-20.708c0.042-0.072,0.1-0.129,0.157-0.187l0.144-0.172l1.095-1.482  c0.58-0.783,1.72-0.869,2.41-0.181l1.69,1.692c4.517,4.517,11.843,4.517,16.36,0l1.032-1.034L31.112,36.373z M71.021,61.669  L38.417,29.063l-6.297,6.296l32.606,32.605L71.021,61.669z M54.934,15.274c0.102-0.04,0.203-0.081,0.293-0.152  c0.345-0.222,0.597-0.555,0.99-0.748c1.486-0.697,4.628,1.435,4.841,3.627c0.09,0.879-0.293,1.525-0.737,2.071  c-1.628,1.99-4.153,3.082-5.76,5.092c-0.395,0.494-0.737,1.101-0.475,2.03c0.182,0.688,0.848,1.455,1.566,1.566  c0.241,0.04,0.423,0,0.636-0.05c2.062-0.586,3.173-2.445,4.425-3.9c0.576-0.657,1.143-1.364,1.859-1.899  c0.526-0.364,2.617-1.323,2.96,0.818c0.071,0.455-0.09,0.798-0.272,1.081c-0.182,0.283-0.413,0.536-0.495,0.899  c-0.312,1.486,1.597,2.283,2.525,1.899c0.547-0.222,1.021-0.535,1.637-0.606c0.638-0.09,1.465,0.091,2.214,0.677  c1.717,1.395,1.434,3.092,0.909,3.96c-1.334,2.183-3.729,3.364-5.214,5.415c-0.425,0.586-0.899,2.092,0.638,3.103  c0.504,0.323,0.999,0.293,1.363,0.192c0.666-0.203,1.172-0.627,1.656-1.091c1.212-1.152,2.294-2.476,3.657-3.476  c0.586-0.445,1.122-0.96,1.961-1.091c0.848-0.142,2.293,0.596,2.364,1.839c0.04,0.505-0.191,0.839-0.444,1.152  c-1.405,1.769-3.385,2.94-5.244,4.274c-1.627,1.142-3.607,2.172-4.031,4.455c-0.101,0.485,0.01,1.122,0.476,1.708  c0.322,0.384,0.747,0.687,1.162,0.899c2.292,1.101,3.384-1.061,4.243-2.102c1.313-1.576,2.303-3.455,3.586-5.062  c0.626-0.788,1.323-1.505,2.081-2.163c0.283-0.242,0.586-0.485,0.91-0.708c0.838-0.576,1.899,0.385,1.384,1.264  c-0.192,0.333-0.415,0.636-0.678,0.898c-0.231,0.233-0.484,0.445-0.596,0.779c-0.132,0.333-0.061,0.828,0.282,1.272  c0.526,0.708,1.466,0.939,1.981,0.728c0.515-0.192,0.798-0.657,1.283-0.899c0.475-0.233,1.131-0.162,1.809,0.111  c0.586,0.242,1.212,0.646,1.728,1.142l5.758-5.759c0.678-0.677,0.638-1.748-0.02-2.405l-0.132-0.131  c-1.979-1.616-3.728-3.223-5.313-4.809c-7.274-7.275-11.033-14.104-16.742-19.813c-2.222-2.222-4.758-4.293-7.91-6.133  c-0.656-0.394-1.525-0.272-2.071,0.273l-9.032,9.033l0.01,0.01C53.479,15.254,54.419,15.486,54.934,15.274z M87.396,45.292  c-0.364-0.344-0.839-0.657-1.263-0.839c-0.344-0.142-0.586-0.142-0.637-0.131L72.029,57.789L42.295,28.055l11.396-11.396  c-0.576-0.152-1.122-0.455-1.556-0.889c-0.07-0.071-0.152-0.152-0.202-0.223L39.425,28.055l32.604,32.604L87.396,45.292z"/><text x="0" y="115" fill="#000000" font-size="5px" font-weight="bold" font-family="'Helvetica Neue', Helvetica, Arial-Unicode, Arial, Sans-serif">Created by Kevin</text><text x="0" y="120" fill="#000000" font-size="5px" font-weight="bold" font-family="'Helvetica Neue', Helvetica, Arial-Unicode, Arial, Sans-serif">from the Noun Project</text></svg>